<svg xmlns="http://www.w3.org/2000/svg" width="24" height="24" fill="none" viewBox="0 0 24 24" id="instagram-reel">
  <path fill="#000" fill-rule="evenodd" d="M1.25 6.5C1.25 3.60051 3.6005 1.25 6.5 1.25H17.5C20.3995 1.25 22.75 3.6005 22.75 6.5V17.5C22.75 20.3995 20.3995 22.75 17.5 22.75H11C10.5858 22.75 10.25 22.4142 10.25 22C10.25 21.5858 10.5858 21.25 11 21.25H17.5C19.5711 21.25 21.25 19.5711 21.25 17.5V6.5C21.25 4.42893 19.5711 2.75 17.5 2.75H6.5C4.42893 2.75 2.75 4.42893 2.75 6.5V17.5C2.75 19.5711 4.42893 21.25 6.5 21.25H7C7.41421 21.25 7.75 21.5858 7.75 22C7.75 22.4142 7.41421 22.75 7 22.75H6.5C3.60051 22.75 1.25 20.3995 1.25 17.5V6.5Z" clip-rule="evenodd"></path>
  <path fill="#000" fill-rule="evenodd" d="M9.15364 10.3348C9.40169 10.2056 9.70099 10.2252 9.9301 10.3856L14.9301 13.8856C15.1306 14.0259 15.25 14.2553 15.25 14.5 15.25 14.7447 15.1306 14.9741 14.9301 15.1144L9.9301 18.6144C9.70099 18.7748 9.40169 18.7944 9.15364 18.6652 8.90559 18.5361 8.75 18.2797 8.75 18V11C8.75 10.7203 8.90559 10.4639 9.15364 10.3348zM10.25 12.4405V16.5595L13.1922 14.5 10.25 12.4405zM1.25 8C1.25 7.58579 1.58579 7.25 2 7.25H22C22.4142 7.25 22.75 7.58579 22.75 8 22.75 8.41421 22.4142 8.75 22 8.75H2C1.58579 8.75 1.25 8.41421 1.25 8z" clip-rule="evenodd"></path>
  <path fill="#000" fill-rule="evenodd" d="M7.76303 1.28849C8.15599 1.1575 8.58073 1.36987 8.71172 1.76283L10.7117 7.76283C10.8427 8.15578 10.6303 8.58052 10.2374 8.71151 9.84442 8.8425 9.41968 8.63013 9.28869 8.23717L7.28869 2.23717C7.15771 1.84421 7.37008 1.41947 7.76303 1.28849zM13.763 1.28849C14.156 1.1575 14.5807 1.36987 14.7117 1.76283L16.7117 7.76283C16.8427 8.15578 16.6303 8.58052 16.2374 8.71151 15.8444 8.8425 15.4197 8.63013 15.2887 8.23717L13.2887 2.23717C13.1577 1.84421 13.3701 1.41947 13.763 1.28849z" clip-rule="evenodd"></path>
</svg>
